<?xml version="1.0" encoding="UTF-8"?>
<svg xmlns="http://www.w3.org/2000/svg" xmlns:xlink="http://www.w3.org/1999/xlink" width="194pt" height="97pt" viewBox="0 0 194 97" version="1.1">
<g id="surface1">
<path style=" stroke:none;fill-rule:nonzero;fill:rgb(58.431373%,74.901961%,27.843137%);fill-opacity:1;" d="M 41.726562 26.90625 C 41.6875 26.667969 41.488281 26.488281 41.25 26.476562 L 36.890625 26.140625 C 36.890625 26.140625 33.980469 23.28125 33.710938 22.960938 C 33.378906 22.707031 32.933594 22.652344 32.550781 22.820312 L 30.960938 23.296875 C 29.992188 20.527344 28.289062 17.96875 25.300781 17.96875 L 25.0625 17.96875 C 24.414062 17.039062 23.378906 16.453125 22.246094 16.378906 C 15.265625 16.378906 11.925781 25.09375 10.910156 29.511719 C 8.1875 30.339844 6.265625 30.960938 6.011719 31.007812 C 4.515625 31.484375 4.421875 31.550781 4.261719 32.949219 L 0.109375 64.640625 L 30.914062 70.414062 L 47.703125 66.785156 C 47.703125 66.785156 41.773438 27.191406 41.726562 26.90625 Z M 29.226562 23.851562 L 26.601562 24.679688 L 26.601562 24.089844 C 26.628906 22.660156 26.414062 21.234375 25.96875 19.878906 C 27.542969 20.082031 28.621094 21.816406 29.226562 23.851562 Z M 24.089844 20.226562 C 24.636719 21.753906 24.886719 23.375 24.824219 24.996094 L 24.824219 25.285156 C 23.121094 25.824219 21.292969 26.398438 19.449219 26.875 C 20.417969 22.882812 22.40625 20.957031 24.089844 20.226562 Z M 22.007812 18.285156 C 22.320312 18.292969 22.625 18.394531 22.882812 18.574219 C 20.65625 19.636719 18.238281 22.261719 17.269531 27.542969 C 15.773438 27.972656 14.359375 28.464844 13.007812 28.84375 C 14.214844 24.824219 17.015625 18.285156 22.007812 18.285156 Z M 22.007812 18.285156 "/>
<path style=" stroke:none;fill-rule:nonzero;fill:rgb(36.862745%,55.686275%,24.313725%);fill-opacity:1;" d="M 41.34375 26.476562 L 36.988281 26.140625 C 36.988281 26.140625 34.078125 23.28125 33.808594 22.960938 C 33.6875 22.851562 33.539062 22.785156 33.378906 22.769531 L 31.054688 70.476562 L 47.703125 66.785156 C 47.703125 66.785156 41.835938 27.160156 41.789062 26.875 C 41.703125 26.6875 41.539062 26.542969 41.34375 26.476562 Z M 41.34375 26.476562 "/>
<path style=" stroke:none;fill-rule:nonzero;fill:rgb(100%,100%,100%);fill-opacity:1;" d="M 25.25 35.730469 L 23.167969 41.820312 C 21.894531 41.199219 20.5 40.871094 19.082031 40.867188 C 15.902344 40.867188 15.695312 42.902344 15.695312 43.425781 C 15.695312 46.242188 23.007812 47.308594 23.007812 53.84375 C 23.007812 58.980469 19.828125 62.320312 15.3125 62.320312 C 12.320312 62.382812 9.433594 61.1875 7.363281 59.027344 L 8.761719 54.257812 C 10.210938 55.523438 11.996094 56.34375 13.898438 56.625 C 14.46875 56.652344 15.023438 56.445312 15.433594 56.050781 C 15.84375 55.65625 16.078125 55.113281 16.078125 54.542969 C 16.078125 50.917969 10.066406 50.710938 10.066406 44.761719 C 10.066406 39.722656 13.691406 34.839844 21.007812 34.839844 C 22.472656 34.773438 23.933594 35.078125 25.25 35.730469 Z M 25.25 35.730469 "/>
<path style=" stroke:none;fill-rule:nonzero;fill:rgb(0%,0%,0%);fill-opacity:1;" d="M 67.105469 47.210938 C 65.515625 46.289062 64.59375 45.621094 64.59375 44.492188 C 64.59375 43.140625 65.800781 42.3125 67.644531 42.3125 C 69.050781 42.34375 70.4375 42.65625 71.714844 43.238281 L 73.148438 38.578125 C 73.148438 38.578125 71.75 37.464844 67.628906 37.464844 C 61.921875 37.464844 57.945312 40.757812 57.945312 45.414062 C 57.945312 48.039062 59.789062 50.011719 62.253906 51.472656 C 64.242188 52.632812 64.972656 53.414062 64.972656 54.652344 C 64.972656 55.894531 63.957031 56.878906 62.113281 56.878906 C 60.242188 56.804688 58.40625 56.328125 56.738281 55.480469 L 55.148438 60.125 C 57.125 61.230469 59.367188 61.777344 61.632812 61.714844 C 67.550781 61.714844 71.765625 58.804688 71.765625 53.574219 C 71.8125 50.648438 69.679688 48.660156 67.105469 47.210938 Z M 90.640625 37.367188 C 87.910156 37.378906 85.34375 38.667969 83.707031 40.851562 L 83.609375 40.851562 L 86.125 27.667969 L 79.507812 27.667969 L 73.148438 61.207031 L 79.730469 61.207031 L 81.910156 49.722656 C 82.785156 45.414062 85.011719 42.742188 87.09375 42.742188 C 88.539062 42.742188 89.128906 43.761719 89.128906 45.160156 C 89.128906 46.136719 89.035156 47.113281 88.84375 48.070312 L 86.347656 61.207031 L 92.929688 61.207031 L 95.503906 47.703125 C 95.792969 46.300781 95.949219 44.875 95.980469 43.441406 C 95.980469 39.644531 94.042969 37.367188 90.640625 37.367188 Z M 110.851562 37.367188 C 102.898438 37.367188 97.714844 44.492188 97.714844 52.425781 C 97.714844 57.515625 100.894531 61.632812 106.78125 61.632812 C 114.523438 61.632812 119.753906 54.703125 119.753906 46.574219 C 119.722656 41.886719 116.957031 37.367188 110.851562 37.367188 Z M 107.671875 56.59375 C 105.445312 56.59375 104.488281 54.703125 104.488281 52.332031 C 104.488281 48.546875 106.429688 42.457031 110.007812 42.457031 C 112.328125 42.457031 113.109375 44.445312 113.109375 46.433594 C 113.027344 50.457031 111.089844 56.609375 107.605469 56.609375 Z M 136.53125 37.367188 C 133.726562 37.535156 131.160156 39.007812 129.597656 41.34375 L 129.503906 41.34375 L 129.882812 37.8125 L 124.03125 37.8125 C 123.746094 40.183594 123.207031 43.824219 122.679688 46.527344 L 118.164062 70.507812 L 124.75 70.507812 L 126.546875 60.824219 L 126.6875 60.824219 C 127.882812 61.453125 129.21875 61.753906 130.570312 61.699219 C 138.265625 61.699219 143.289062 53.746094 143.289062 45.796875 C 143.304688 41.34375 141.316406 37.367188 136.53125 37.367188 Z M 130.28125 56.707031 C 129.277344 56.695312 128.3125 56.320312 127.5625 55.65625 L 128.675781 49.5 C 129.457031 45.429688 131.585938 42.726562 133.859375 42.726562 C 135.847656 42.726562 136.484375 44.574219 136.484375 46.351562 C 136.4375 50.648438 133.90625 56.707031 130.28125 56.707031 Z M 152.65625 27.972656 C 151.644531 27.972656 150.675781 28.375 149.96875 29.097656 C 149.257812 29.816406 148.871094 30.792969 148.886719 31.804688 C 148.820312 32.660156 149.117188 33.507812 149.707031 34.136719 C 150.300781 34.761719 151.125 35.109375 151.988281 35.09375 L 152.082031 35.09375 C 153.117188 35.140625 154.121094 34.75 154.859375 34.023438 C 155.59375 33.296875 155.996094 32.296875 155.964844 31.261719 C 155.996094 30.378906 155.65625 29.519531 155.027344 28.894531 C 154.402344 28.269531 153.539062 27.933594 152.65625 27.972656 Z M 143.511719 61.207031 L 150.046875 61.207031 L 154.546875 37.910156 L 147.917969 37.910156 Z M 171.214844 37.863281 L 166.664062 37.863281 L 166.902344 36.75 C 167.285156 34.523438 168.605469 32.535156 170.832031 32.535156 C 171.539062 32.535156 172.242188 32.648438 172.914062 32.867188 L 174.21875 27.734375 C 173.082031 27.289062 171.859375 27.085938 170.640625 27.144531 C 168.304688 27.09375 166.027344 27.863281 164.199219 29.324219 C 162.113281 31.28125 160.761719 33.898438 160.367188 36.734375 L 160.175781 37.847656 L 157.125 37.847656 L 156.152344 42.792969 L 159.207031 42.792969 L 155.707031 61.15625 L 162.292969 61.15625 L 165.773438 42.792969 L 170.273438 42.792969 Z M 187.050781 37.910156 C 187.050781 37.910156 182.933594 48.277344 181.085938 53.890625 L 180.992188 53.890625 C 180.847656 52.046875 179.402344 37.910156 179.402344 37.910156 L 172.515625 37.910156 L 176.507812 59.265625 C 176.617188 59.640625 176.5625 60.042969 176.363281 60.378906 C 175.5 61.964844 174.273438 63.328125 172.789062 64.355469 C 171.640625 65.152344 170.382812 65.773438 169.050781 66.199219 L 170.847656 71.765625 C 173.261719 71.132812 175.476562 69.902344 177.289062 68.1875 C 180.292969 65.371094 183.058594 61.0625 185.90625 55.164062 L 193.855469 37.925781 Z M 187.050781 37.910156 "/>
</g>
</svg>
