<?xml version="1.0" encoding="UTF-8"?>
<svg xmlns="http://www.w3.org/2000/svg" xmlns:xlink="http://www.w3.org/1999/xlink" width="193pt" height="88pt" viewBox="0 0 193 88" version="1.1">
<g id="surface1">
<path style=" stroke:none;fill-rule:nonzero;fill:rgb(60.784314%,36.078431%,56.078431%);fill-opacity:1;" d="M 6.554688 29.445312 L 59.5 29.445312 C 62.839844 29.445312 65.546875 32.15625 65.546875 35.503906 L 65.546875 55.699219 C 65.546875 59.046875 62.839844 61.757812 59.5 61.757812 L 40.488281 61.757812 L 43.078125 68.148438 L 31.6875 61.84375 L 6.554688 61.84375 C 3.207031 61.820312 0.503906 59.097656 0.503906 55.742188 L 0.503906 35.546875 C 0.484375 33.929688 1.113281 32.371094 2.25 31.226562 C 3.390625 30.078125 4.9375 29.4375 6.554688 29.445312 Z M 6.554688 29.445312 "/>
<path style=" stroke:none;fill-rule:nonzero;fill:rgb(100%,100%,100%);fill-opacity:1;" d="M 3.773438 34.96875 C 4.167969 34.4375 4.796875 34.132812 5.457031 34.148438 C 6.027344 34.042969 6.609375 34.199219 7.050781 34.570312 C 7.496094 34.941406 7.75 35.488281 7.75 36.066406 C 8.570312 41.648438 9.476562 46.351562 10.441406 50.203125 L 16.203125 39.09375 C 16.535156 38.234375 17.308594 37.625 18.21875 37.507812 C 19.371094 37.40625 20.09375 38.1875 20.378906 39.773438 C 20.941406 42.875 21.792969 45.921875 22.929688 48.863281 C 23.605469 42.082031 24.800781 37.234375 26.429688 34.203125 C 26.738281 33.5 27.433594 33.046875 28.199219 33.050781 C 28.808594 33.007812 29.410156 33.199219 29.886719 33.585938 C 30.382812 33.941406 30.6875 34.511719 30.707031 35.128906 C 30.753906 35.582031 30.65625 36.035156 30.417969 36.425781 C 29.070312 39.476562 28.195312 42.71875 27.828125 46.035156 C 27.234375 49.367188 26.980469 52.75 27.0625 56.132812 C 27.128906 56.742188 27.015625 57.359375 26.730469 57.90625 C 26.453125 58.457031 25.90625 58.824219 25.292969 58.875 C 24.480469 58.863281 23.714844 58.511719 23.175781 57.90625 C 20.296875 54.683594 18.28125 50.78125 17.3125 46.566406 C 15.585938 49.988281 14.289062 52.527344 13.464844 54.257812 C 11.882812 57.285156 10.585938 58.832031 9.433594 58.875 C 8.714844 58.875 8.09375 58.296875 7.5625 57.042969 C 6.265625 53.433594 4.78125 46.710938 3.242188 36.699219 C 3.164062 36.074219 3.359375 35.445312 3.773438 34.96875 Z M 60.9375 39.152344 C 60.050781 37.515625 58.457031 36.378906 56.617188 36.078125 C 56.144531 35.988281 55.660156 35.9375 55.179688 35.9375 C 52.535156 36.019531 50.152344 37.550781 48.96875 39.917969 C 47.589844 42.171875 46.875 44.773438 46.910156 47.417969 C 46.859375 49.269531 47.304688 51.097656 48.207031 52.714844 C 49.09375 54.351562 50.691406 55.484375 52.527344 55.785156 C 53.003906 55.878906 53.484375 55.929688 53.96875 55.929688 C 56.613281 55.859375 59.003906 54.320312 60.160156 51.933594 C 61.535156 49.660156 62.25 47.046875 62.222656 44.390625 C 62.230469 42.5625 61.785156 40.761719 60.925781 39.152344 Z M 57.613281 46.511719 C 57.363281 48.023438 56.644531 49.417969 55.550781 50.492188 C 54.996094 51.085938 54.203125 51.402344 53.390625 51.355469 C 52.773438 51.214844 52.238281 50.679688 51.808594 49.625 C 51.492188 48.863281 51.332031 48.042969 51.332031 47.21875 C 51.320312 46.574219 51.382812 45.929688 51.519531 45.296875 C 51.773438 44.152344 52.265625 43.070312 52.960938 42.125 C 53.824219 40.828125 54.789062 40.292969 55.738281 40.496094 C 56.359375 40.640625 56.890625 41.171875 57.324219 42.226562 C 57.636719 42.988281 57.800781 43.808594 57.800781 44.632812 C 57.78125 45.261719 57.71875 45.890625 57.613281 46.511719 Z M 44.230469 39.152344 C 43.332031 37.523438 41.742188 36.394531 39.910156 36.078125 C 39.4375 35.988281 38.953125 35.9375 38.46875 35.9375 C 35.816406 36.011719 33.417969 37.550781 32.234375 39.933594 C 30.878906 42.191406 30.191406 44.785156 30.246094 47.417969 C 30.195312 49.269531 30.640625 51.097656 31.542969 52.714844 C 32.429688 54.351562 34.027344 55.484375 35.863281 55.785156 C 36.339844 55.878906 36.820312 55.929688 37.304688 55.929688 C 39.941406 55.847656 42.3125 54.308594 43.46875 51.933594 C 44.84375 49.660156 45.554688 47.046875 45.527344 44.390625 C 45.585938 42.558594 45.136719 40.746094 44.230469 39.152344 Z M 40.875 46.511719 C 40.648438 48.015625 39.953125 49.40625 38.886719 50.492188 C 38.332031 51.085938 37.539062 51.402344 36.726562 51.355469 C 36.109375 51.214844 35.574219 50.679688 35.144531 49.625 C 34.789062 48.855469 34.59375 48.023438 34.566406 47.171875 C 34.554688 46.527344 34.617188 45.886719 34.753906 45.253906 C 35.007812 44.109375 35.5 43.027344 36.195312 42.082031 C 37.058594 40.78125 38.023438 40.25 38.972656 40.449219 C 39.59375 40.59375 40.125 41.128906 40.558594 42.183594 C 40.875 42.945312 41.035156 43.765625 41.035156 44.589844 C 41.042969 45.234375 40.980469 45.878906 40.847656 46.511719 Z M 40.875 46.511719 "/>
<path style=" stroke:none;fill-rule:nonzero;fill:rgb(0%,0%,0%);fill-opacity:1;" d="M 72.261719 38.949219 C 70.484375 40.730469 69.53125 43.171875 69.625 45.6875 C 69.503906 48.304688 70.457031 50.859375 72.261719 52.757812 C 74.078125 54.570312 76.566406 55.546875 79.128906 55.453125 C 80.070312 55.4375 81.007812 55.292969 81.910156 55.023438 L 81.910156 50.695312 C 81.132812 50.945312 80.320312 51.078125 79.503906 51.082031 C 78.226562 51.121094 77 50.59375 76.148438 49.640625 C 75.246094 48.566406 74.78125 47.191406 74.851562 45.789062 C 74.800781 44.425781 75.246094 43.09375 76.105469 42.039062 C 76.890625 41.101562 78.054688 40.570312 79.273438 40.59375 C 80.164062 40.617188 81.050781 40.75 81.910156 40.984375 L 81.910156 36.65625 C 80.96875 36.417969 80 36.308594 79.027344 36.324219 C 76.503906 36.199219 74.042969 37.15625 72.261719 38.949219 Z M 90.738281 36.265625 C 88.546875 36.164062 86.425781 37.066406 84.976562 38.71875 C 83.484375 40.667969 82.753906 43.09375 82.917969 45.542969 C 82.746094 48.113281 83.472656 50.664062 84.976562 52.757812 C 86.453125 54.492188 88.652344 55.4375 90.925781 55.308594 C 93.140625 55.421875 95.28125 54.472656 96.6875 52.757812 C 98.160156 50.707031 98.886719 48.210938 98.746094 45.6875 C 98.921875 43.175781 98.191406 40.683594 96.6875 38.664062 C 95.160156 37.015625 92.980469 36.136719 90.738281 36.265625 Z M 92.796875 50.117188 C 92.359375 50.828125 91.570312 51.246094 90.738281 51.214844 C 89.941406 51.238281 89.199219 50.804688 88.824219 50.101562 C 88.261719 48.667969 88.03125 47.125 88.144531 45.585938 C 88.144531 42.082031 89.011719 40.351562 90.78125 40.351562 C 92.554688 40.351562 93.664062 42.125 93.664062 45.644531 C 93.753906 47.183594 93.453125 48.722656 92.796875 50.117188 Z M 111.953125 36.757812 L 110.988281 40.839844 C 110.746094 41.894531 110.515625 42.960938 110.3125 44.015625 L 109.78125 46.898438 C 109.246094 44.015625 108.585938 40.695312 107.71875 36.800781 L 101.542969 36.800781 L 99.191406 54.976562 L 103.800781 54.976562 L 105.054688 42.484375 L 108.222656 54.976562 L 111.535156 54.976562 L 114.5625 42.527344 L 115.859375 54.976562 L 120.695312 54.976562 L 118.25 36.800781 L 111.953125 36.800781 Z M 134.078125 36.757812 L 133.113281 40.839844 C 132.867188 41.894531 132.636719 42.960938 132.433594 44.015625 L 131.902344 46.898438 C 131.371094 44.015625 130.707031 40.695312 129.84375 36.800781 L 123.648438 36.800781 L 121.34375 54.976562 L 125.953125 54.976562 L 127.207031 42.484375 L 130.375 54.976562 L 133.6875 54.976562 L 136.714844 42.527344 L 138.007812 54.976562 L 142.863281 54.976562 L 140.414062 36.859375 L 134.078125 36.859375 Z M 149.144531 47.765625 L 153.464844 47.765625 L 153.464844 44 L 149.144531 44 L 149.144531 40.683594 L 154.113281 40.683594 L 154.113281 36.84375 L 144.230469 36.84375 L 144.230469 54.921875 L 154.167969 54.921875 L 154.167969 51.070312 L 149.128906 51.070312 Z M 167.867188 44.878906 C 168.367188 44.121094 168.632812 43.234375 168.628906 42.328125 C 168.683594 40.726562 167.925781 39.203125 166.613281 38.289062 C 164.984375 37.246094 163.070312 36.742188 161.140625 36.84375 L 155.378906 36.84375 L 155.378906 54.921875 L 160.277344 54.921875 L 160.277344 46.65625 L 160.378906 46.65625 L 164.367188 54.921875 L 169.507812 54.921875 L 165.621094 46.742188 C 166.570312 46.378906 167.375 45.722656 167.925781 44.867188 Z M 160.378906 44.589844 L 160.378906 40.261719 C 161.246094 40.210938 162.109375 40.414062 162.867188 40.839844 C 163.417969 41.28125 163.707031 41.972656 163.632812 42.671875 C 163.691406 43.914062 162.59375 44.535156 160.433594 44.578125 Z M 171.566406 38.949219 C 169.792969 40.730469 168.839844 43.171875 168.933594 45.6875 C 168.8125 48.304688 169.765625 50.859375 171.566406 52.757812 C 173.386719 54.570312 175.875 55.546875 178.4375 55.453125 C 179.378906 55.4375 180.316406 55.292969 181.21875 55.023438 L 181.21875 50.695312 C 180.441406 50.945312 179.628906 51.078125 178.8125 51.082031 C 177.535156 51.121094 176.308594 50.59375 175.457031 49.640625 C 174.554688 48.566406 174.089844 47.191406 174.160156 45.789062 C 174.109375 44.425781 174.554688 43.09375 175.414062 42.039062 C 176.199219 41.101562 177.363281 40.570312 178.582031 40.59375 C 179.472656 40.617188 180.359375 40.75 181.21875 40.984375 L 181.21875 36.65625 C 180.277344 36.417969 179.308594 36.308594 178.335938 36.324219 C 175.8125 36.199219 173.351562 37.15625 171.566406 38.949219 Z M 187.410156 51.070312 L 187.410156 47.75 L 191.734375 47.75 L 191.734375 44 L 187.410156 44 L 187.410156 40.683594 L 192.453125 40.683594 L 192.453125 36.800781 L 182.570312 36.800781 L 182.570312 54.921875 L 192.453125 54.921875 L 192.453125 51.070312 Z M 187.410156 51.070312 "/>
</g>
</svg>
